<mxfile host="app.diagrams.net" agent="Mozilla/5.0 (X11; Ubuntu; Linux x86_64; rv:137.0) Gecko/20100101 Firefox/137.0" version="26.2.12">
  <diagram id="Escola_Tecnica_ER" name="Modelo Conceitual - Escola Técnica">
    <mxGraphModel dx="3004" dy="1733" grid="1" gridSize="10" guides="1" tooltips="1" connect="1" arrows="1" fold="1" page="1" pageScale="1" pageWidth="1169" pageHeight="827" math="0" shadow="0">
      <root>
        <mxCell id="0" />
        <mxCell id="1" parent="0" />
        <mxCell id="Title" value="DIAGRAMA ENTIDADE-RELACIONAMENTO: ESCOLA TÉCNICA" style="text;html=1;strokeColor=none;fillColor=none;align=center;verticalAlign=middle;whiteSpace=wrap;rounded=0;fontSize=16;fontStyle=1" parent="1" vertex="1">
          <mxGeometry x="-50" y="-60" width="600" height="30" as="geometry" />
        </mxCell>
        <mxCell id="hwFDASRLzHkRxMsRQahO-2" value="" style="group" vertex="1" connectable="0" parent="1">
          <mxGeometry x="-280" width="1060" height="660" as="geometry" />
        </mxCell>
        <mxCell id="E1" value="Aluno" style="rounded=0;whiteSpace=wrap;html=1;fillColor=#dae8fc;strokeColor=#6c8ebf;" parent="hwFDASRLzHkRxMsRQahO-2" vertex="1">
          <mxGeometry x="170" y="300" width="120" height="60" as="geometry" />
        </mxCell>
        <mxCell id="E2" value="Curso" style="rounded=0;whiteSpace=wrap;html=1;fillColor=#dae8fc;strokeColor=#6c8ebf;" parent="hwFDASRLzHkRxMsRQahO-2" vertex="1">
          <mxGeometry x="770" y="80" width="120" height="60" as="geometry" />
        </mxCell>
        <mxCell id="E3" value="Turma" style="rounded=0;whiteSpace=wrap;html=1;fillColor=#dae8fc;strokeColor=#6c8ebf;" parent="hwFDASRLzHkRxMsRQahO-2" vertex="1">
          <mxGeometry x="770" y="300" width="120" height="60" as="geometry" />
        </mxCell>
        <mxCell id="E4" value="Professor" style="rounded=0;whiteSpace=wrap;html=1;fillColor=#dae8fc;strokeColor=#6c8ebf;" parent="hwFDASRLzHkRxMsRQahO-2" vertex="1">
          <mxGeometry x="770" y="520" width="120" height="60" as="geometry" />
        </mxCell>
        <mxCell id="A1_1" value="id_aluno" style="ellipse;whiteSpace=wrap;html=1;fillColor=#fff2cc;strokeColor=#d6b656;fontStyle=4" parent="hwFDASRLzHkRxMsRQahO-2" vertex="1">
          <mxGeometry x="180" y="150" width="100" height="40" as="geometry" />
        </mxCell>
        <mxCell id="A1_2" value="nome" style="ellipse;whiteSpace=wrap;html=1;fillColor=#fff2cc;strokeColor=#d6b656;" parent="hwFDASRLzHkRxMsRQahO-2" vertex="1">
          <mxGeometry y="210" width="100" height="40" as="geometry" />
        </mxCell>
        <mxCell id="A1_3" value="rg" style="ellipse;whiteSpace=wrap;html=1;fillColor=#fff2cc;strokeColor=#d6b656;" parent="hwFDASRLzHkRxMsRQahO-2" vertex="1">
          <mxGeometry y="260" width="100" height="40" as="geometry" />
        </mxCell>
        <mxCell id="A1_4" value="cpf" style="ellipse;whiteSpace=wrap;html=1;fillColor=#fff2cc;strokeColor=#d6b656;" parent="hwFDASRLzHkRxMsRQahO-2" vertex="1">
          <mxGeometry y="310" width="100" height="40" as="geometry" />
        </mxCell>
        <mxCell id="A1_5" value="data_nascimento" style="ellipse;whiteSpace=wrap;html=1;fillColor=#fff2cc;strokeColor=#d6b656;" parent="hwFDASRLzHkRxMsRQahO-2" vertex="1">
          <mxGeometry y="360" width="100" height="40" as="geometry" />
        </mxCell>
        <mxCell id="A1_6" value="email" style="ellipse;whiteSpace=wrap;html=1;fillColor=#fff2cc;strokeColor=#d6b656;" parent="hwFDASRLzHkRxMsRQahO-2" vertex="1">
          <mxGeometry y="410" width="100" height="40" as="geometry" />
        </mxCell>
        <mxCell id="A1_7" value="telefone_contato" style="ellipse;whiteSpace=wrap;html=1;fillColor=#fff2cc;strokeColor=#d6b656;" parent="hwFDASRLzHkRxMsRQahO-2" vertex="1">
          <mxGeometry x="180" y="450" width="100" height="40" as="geometry" />
        </mxCell>
        <mxCell id="A1_8" value="endereco_residencia" style="ellipse;whiteSpace=wrap;html=1;fillColor=#fff2cc;strokeColor=#d6b656;" parent="hwFDASRLzHkRxMsRQahO-2" vertex="1">
          <mxGeometry x="290" y="400" width="100" height="40" as="geometry" />
        </mxCell>
        <mxCell id="C_A1_1" value="" style="endArrow=none;html=1;rounded=0;" parent="hwFDASRLzHkRxMsRQahO-2" source="E1" target="A1_1" edge="1">
          <mxGeometry relative="1" as="geometry" />
        </mxCell>
        <mxCell id="C_A1_2" value="" style="endArrow=none;html=1;rounded=0;" parent="hwFDASRLzHkRxMsRQahO-2" source="E1" target="A1_2" edge="1">
          <mxGeometry relative="1" as="geometry" />
        </mxCell>
        <mxCell id="C_A1_3" value="" style="endArrow=none;html=1;rounded=0;" parent="hwFDASRLzHkRxMsRQahO-2" source="E1" target="A1_3" edge="1">
          <mxGeometry relative="1" as="geometry" />
        </mxCell>
        <mxCell id="C_A1_4" value="" style="endArrow=none;html=1;rounded=0;" parent="hwFDASRLzHkRxMsRQahO-2" source="E1" target="A1_4" edge="1">
          <mxGeometry relative="1" as="geometry" />
        </mxCell>
        <mxCell id="C_A1_5" value="" style="endArrow=none;html=1;rounded=0;" parent="hwFDASRLzHkRxMsRQahO-2" source="E1" target="A1_5" edge="1">
          <mxGeometry relative="1" as="geometry" />
        </mxCell>
        <mxCell id="C_A1_6" value="" style="endArrow=none;html=1;rounded=0;" parent="hwFDASRLzHkRxMsRQahO-2" source="E1" target="A1_6" edge="1">
          <mxGeometry relative="1" as="geometry" />
        </mxCell>
        <mxCell id="C_A1_7" value="" style="endArrow=none;html=1;rounded=0;" parent="hwFDASRLzHkRxMsRQahO-2" source="E1" target="A1_7" edge="1">
          <mxGeometry relative="1" as="geometry" />
        </mxCell>
        <mxCell id="C_A1_8" value="" style="endArrow=none;html=1;rounded=0;" parent="hwFDASRLzHkRxMsRQahO-2" source="E1" target="A1_8" edge="1">
          <mxGeometry relative="1" as="geometry" />
        </mxCell>
        <mxCell id="A2_1" value="cod_curso" style="ellipse;whiteSpace=wrap;html=1;fillColor=#fff2cc;strokeColor=#d6b656;fontStyle=4" parent="hwFDASRLzHkRxMsRQahO-2" vertex="1">
          <mxGeometry x="660" width="100" height="40" as="geometry" />
        </mxCell>
        <mxCell id="A2_2" value="nome" style="ellipse;whiteSpace=wrap;html=1;fillColor=#fff2cc;strokeColor=#d6b656;" parent="hwFDASRLzHkRxMsRQahO-2" vertex="1">
          <mxGeometry x="780" width="100" height="40" as="geometry" />
        </mxCell>
        <mxCell id="A2_3" value="descricao" style="ellipse;whiteSpace=wrap;html=1;fillColor=#fff2cc;strokeColor=#d6b656;" parent="hwFDASRLzHkRxMsRQahO-2" vertex="1">
          <mxGeometry x="900" width="100" height="40" as="geometry" />
        </mxCell>
        <mxCell id="A2_4" value="conteudo" style="ellipse;whiteSpace=wrap;html=1;fillColor=#fff2cc;strokeColor=#d6b656;" parent="hwFDASRLzHkRxMsRQahO-2" vertex="1">
          <mxGeometry x="960" y="50" width="100" height="40" as="geometry" />
        </mxCell>
        <mxCell id="A2_5" value="carga_horaria" style="ellipse;whiteSpace=wrap;html=1;fillColor=#fff2cc;strokeColor=#d6b656;" parent="hwFDASRLzHkRxMsRQahO-2" vertex="1">
          <mxGeometry x="960" y="100" width="100" height="40" as="geometry" />
        </mxCell>
        <mxCell id="C_A2_1" value="" style="endArrow=none;html=1;rounded=0;" parent="hwFDASRLzHkRxMsRQahO-2" source="E2" target="A2_1" edge="1">
          <mxGeometry relative="1" as="geometry" />
        </mxCell>
        <mxCell id="C_A2_2" value="" style="endArrow=none;html=1;rounded=0;" parent="hwFDASRLzHkRxMsRQahO-2" source="E2" target="A2_2" edge="1">
          <mxGeometry relative="1" as="geometry" />
        </mxCell>
        <mxCell id="C_A2_3" value="" style="endArrow=none;html=1;rounded=0;" parent="hwFDASRLzHkRxMsRQahO-2" source="E2" target="A2_3" edge="1">
          <mxGeometry relative="1" as="geometry" />
        </mxCell>
        <mxCell id="C_A2_4" value="" style="endArrow=none;html=1;rounded=0;" parent="hwFDASRLzHkRxMsRQahO-2" source="E2" target="A2_4" edge="1">
          <mxGeometry relative="1" as="geometry" />
        </mxCell>
        <mxCell id="C_A2_5" value="" style="endArrow=none;html=1;rounded=0;" parent="hwFDASRLzHkRxMsRQahO-2" source="E2" target="A2_5" edge="1">
          <mxGeometry relative="1" as="geometry" />
        </mxCell>
        <mxCell id="A3_1" value="id_turma" style="ellipse;whiteSpace=wrap;html=1;fillColor=#fff2cc;strokeColor=#d6b656;fontStyle=4" parent="hwFDASRLzHkRxMsRQahO-2" vertex="1">
          <mxGeometry x="910" y="250" width="100" height="40" as="geometry" />
        </mxCell>
        <mxCell id="A3_2" value="data_inicio" style="ellipse;whiteSpace=wrap;html=1;fillColor=#fff2cc;strokeColor=#d6b656;" parent="hwFDASRLzHkRxMsRQahO-2" vertex="1">
          <mxGeometry x="910" y="300" width="100" height="40" as="geometry" />
        </mxCell>
        <mxCell id="A3_3" value="data_fim" style="ellipse;whiteSpace=wrap;html=1;fillColor=#fff2cc;strokeColor=#d6b656;" parent="hwFDASRLzHkRxMsRQahO-2" vertex="1">
          <mxGeometry x="910" y="350" width="100" height="40" as="geometry" />
        </mxCell>
        <mxCell id="C_A3_1" value="" style="endArrow=none;html=1;rounded=0;" parent="hwFDASRLzHkRxMsRQahO-2" source="E3" target="A3_1" edge="1">
          <mxGeometry relative="1" as="geometry" />
        </mxCell>
        <mxCell id="C_A3_2" value="" style="endArrow=none;html=1;rounded=0;" parent="hwFDASRLzHkRxMsRQahO-2" source="E3" target="A3_2" edge="1">
          <mxGeometry relative="1" as="geometry" />
        </mxCell>
        <mxCell id="C_A3_3" value="" style="endArrow=none;html=1;rounded=0;" parent="hwFDASRLzHkRxMsRQahO-2" source="E3" target="A3_3" edge="1">
          <mxGeometry relative="1" as="geometry" />
        </mxCell>
        <mxCell id="A4_1" value="id_professor" style="ellipse;whiteSpace=wrap;html=1;fillColor=#fff2cc;strokeColor=#d6b656;fontStyle=4" parent="hwFDASRLzHkRxMsRQahO-2" vertex="1">
          <mxGeometry x="910" y="470" width="100" height="40" as="geometry" />
        </mxCell>
        <mxCell id="A4_2" value="nome" style="ellipse;whiteSpace=wrap;html=1;fillColor=#fff2cc;strokeColor=#d6b656;" parent="hwFDASRLzHkRxMsRQahO-2" vertex="1">
          <mxGeometry x="910" y="520" width="100" height="40" as="geometry" />
        </mxCell>
        <mxCell id="A4_3" value="data_nascimento" style="ellipse;whiteSpace=wrap;html=1;fillColor=#fff2cc;strokeColor=#d6b656;" parent="hwFDASRLzHkRxMsRQahO-2" vertex="1">
          <mxGeometry x="910" y="570" width="100" height="40" as="geometry" />
        </mxCell>
        <mxCell id="A4_4" value="rg" style="ellipse;whiteSpace=wrap;html=1;fillColor=#fff2cc;strokeColor=#d6b656;" parent="hwFDASRLzHkRxMsRQahO-2" vertex="1">
          <mxGeometry x="880" y="620" width="100" height="40" as="geometry" />
        </mxCell>
        <mxCell id="A4_5" value="cpf" style="ellipse;whiteSpace=wrap;html=1;fillColor=#fff2cc;strokeColor=#d6b656;" parent="hwFDASRLzHkRxMsRQahO-2" vertex="1">
          <mxGeometry x="660" y="570" width="100" height="40" as="geometry" />
        </mxCell>
        <mxCell id="A4_6" value="email" style="ellipse;whiteSpace=wrap;html=1;fillColor=#fff2cc;strokeColor=#d6b656;" parent="hwFDASRLzHkRxMsRQahO-2" vertex="1">
          <mxGeometry x="660" y="520" width="100" height="40" as="geometry" />
        </mxCell>
        <mxCell id="A4_7" value="telefones_contato" style="ellipse;whiteSpace=wrap;html=1;fillColor=#fff2cc;strokeColor=#d6b656;" parent="hwFDASRLzHkRxMsRQahO-2" vertex="1">
          <mxGeometry x="660" y="470" width="100" height="40" as="geometry" />
        </mxCell>
        <mxCell id="hwFDASRLzHkRxMsRQahO-1" value="" style="edgeStyle=orthogonalEdgeStyle;rounded=0;orthogonalLoop=1;jettySize=auto;html=1;" edge="1" parent="hwFDASRLzHkRxMsRQahO-2" source="A4_8" target="A4_4">
          <mxGeometry relative="1" as="geometry" />
        </mxCell>
        <mxCell id="A4_8" value="endereco_residencia" style="ellipse;whiteSpace=wrap;html=1;fillColor=#fff2cc;strokeColor=#d6b656;" parent="hwFDASRLzHkRxMsRQahO-2" vertex="1">
          <mxGeometry x="690" y="620" width="100" height="40" as="geometry" />
        </mxCell>
        <mxCell id="C_A4_1" value="" style="endArrow=none;html=1;rounded=0;" parent="hwFDASRLzHkRxMsRQahO-2" source="E4" target="A4_1" edge="1">
          <mxGeometry relative="1" as="geometry" />
        </mxCell>
        <mxCell id="C_A4_2" value="" style="endArrow=none;html=1;rounded=0;" parent="hwFDASRLzHkRxMsRQahO-2" source="E4" target="A4_2" edge="1">
          <mxGeometry relative="1" as="geometry" />
        </mxCell>
        <mxCell id="C_A4_3" value="" style="endArrow=none;html=1;rounded=0;" parent="hwFDASRLzHkRxMsRQahO-2" source="E4" target="A4_3" edge="1">
          <mxGeometry relative="1" as="geometry" />
        </mxCell>
        <mxCell id="C_A4_4" value="" style="endArrow=none;html=1;rounded=0;" parent="hwFDASRLzHkRxMsRQahO-2" source="E4" target="A4_4" edge="1">
          <mxGeometry relative="1" as="geometry" />
        </mxCell>
        <mxCell id="C_A4_5" value="" style="endArrow=none;html=1;rounded=0;" parent="hwFDASRLzHkRxMsRQahO-2" source="E4" target="A4_5" edge="1">
          <mxGeometry relative="1" as="geometry" />
        </mxCell>
        <mxCell id="C_A4_6" value="" style="endArrow=none;html=1;rounded=0;" parent="hwFDASRLzHkRxMsRQahO-2" source="E4" target="A4_6" edge="1">
          <mxGeometry relative="1" as="geometry" />
        </mxCell>
        <mxCell id="C_A4_7" value="" style="endArrow=none;html=1;rounded=0;" parent="hwFDASRLzHkRxMsRQahO-2" source="E4" target="A4_7" edge="1">
          <mxGeometry relative="1" as="geometry" />
        </mxCell>
        <mxCell id="C_A4_8" value="" style="endArrow=none;html=1;rounded=0;" parent="hwFDASRLzHkRxMsRQahO-2" source="E4" target="A4_8" edge="1">
          <mxGeometry relative="1" as="geometry" />
        </mxCell>
        <mxCell id="R1" value="Matricula" style="rhombus;whiteSpace=wrap;html=1;fillColor=#d5e8d4;strokeColor=#82b366;" parent="hwFDASRLzHkRxMsRQahO-2" vertex="1">
          <mxGeometry x="470" y="300" width="120" height="60" as="geometry" />
        </mxCell>
        <mxCell id="R2" value="Oferecimento" style="rhombus;whiteSpace=wrap;html=1;fillColor=#d5e8d4;strokeColor=#82b366;" parent="hwFDASRLzHkRxMsRQahO-2" vertex="1">
          <mxGeometry x="770" y="190" width="120" height="60" as="geometry" />
        </mxCell>
        <mxCell id="R3" value="Ministra" style="rhombus;whiteSpace=wrap;html=1;fillColor=#d5e8d4;strokeColor=#82b366;" parent="hwFDASRLzHkRxMsRQahO-2" vertex="1">
          <mxGeometry x="770" y="410" width="120" height="60" as="geometry" />
        </mxCell>
        <mxCell id="AR1_1" value="status_aprovacao" style="ellipse;whiteSpace=wrap;html=1;fillColor=#fff2cc;strokeColor=#d6b656;dashed=1;" parent="hwFDASRLzHkRxMsRQahO-2" vertex="1">
          <mxGeometry x="470" y="220" width="120" height="40" as="geometry" />
        </mxCell>
        <mxCell id="AR1_2" value="media_notas" style="ellipse;whiteSpace=wrap;html=1;fillColor=#fff2cc;strokeColor=#d6b656;dashed=1;" parent="hwFDASRLzHkRxMsRQahO-2" vertex="1">
          <mxGeometry x="370" y="250" width="100" height="40" as="geometry" />
        </mxCell>
        <mxCell id="C_AR1_1" value="" style="endArrow=none;html=1;rounded=0;dashed=1;" parent="hwFDASRLzHkRxMsRQahO-2" source="R1" target="AR1_1" edge="1">
          <mxGeometry relative="1" as="geometry" />
        </mxCell>
        <mxCell id="C_AR1_2" value="" style="endArrow=none;html=1;rounded=0;dashed=1;" parent="hwFDASRLzHkRxMsRQahO-2" source="R1" target="AR1_2" edge="1">
          <mxGeometry relative="1" as="geometry" />
        </mxCell>
        <mxCell id="C_E1_R1" value="" style="endArrow=none;html=1;rounded=0;" parent="hwFDASRLzHkRxMsRQahO-2" source="E1" target="R1" edge="1">
          <mxGeometry relative="1" as="geometry" />
        </mxCell>
        <mxCell id="Card_E1_R1" value="(0,n)" style="text;html=1;strokeColor=none;fillColor=none;align=center;verticalAlign=middle;whiteSpace=wrap;rounded=0;" parent="hwFDASRLzHkRxMsRQahO-2" vertex="1">
          <mxGeometry x="300" y="300" width="40" height="20" as="geometry" />
        </mxCell>
        <mxCell id="C_R1_E3" value="" style="endArrow=none;html=1;rounded=0;" parent="hwFDASRLzHkRxMsRQahO-2" source="R1" target="E3" edge="1">
          <mxGeometry relative="1" as="geometry" />
        </mxCell>
        <mxCell id="Card_R1_E3" value="(0,30)" style="text;html=1;strokeColor=none;fillColor=none;align=center;verticalAlign=middle;whiteSpace=wrap;rounded=0;" parent="hwFDASRLzHkRxMsRQahO-2" vertex="1">
          <mxGeometry x="720" y="300" width="40" height="20" as="geometry" />
        </mxCell>
        <mxCell id="C_E2_R2" value="" style="endArrow=none;html=1;rounded=0;" parent="hwFDASRLzHkRxMsRQahO-2" source="E2" target="R2" edge="1">
          <mxGeometry relative="1" as="geometry" />
        </mxCell>
        <mxCell id="Card_E2_R2" value="(1,1)" style="text;html=1;strokeColor=none;fillColor=none;align=center;verticalAlign=middle;whiteSpace=wrap;rounded=0;" parent="hwFDASRLzHkRxMsRQahO-2" vertex="1">
          <mxGeometry x="830" y="150" width="40" height="20" as="geometry" />
        </mxCell>
        <mxCell id="C_R2_E3" value="" style="endArrow=none;html=1;rounded=0;" parent="hwFDASRLzHkRxMsRQahO-2" source="R2" target="E3" edge="1">
          <mxGeometry relative="1" as="geometry" />
        </mxCell>
        <mxCell id="Card_R2_E3" value="(0,n)" style="text;html=1;strokeColor=none;fillColor=none;align=center;verticalAlign=middle;whiteSpace=wrap;rounded=0;" parent="hwFDASRLzHkRxMsRQahO-2" vertex="1">
          <mxGeometry x="830" y="260" width="40" height="20" as="geometry" />
        </mxCell>
        <mxCell id="C_E3_R3" value="" style="endArrow=none;html=1;rounded=0;" parent="hwFDASRLzHkRxMsRQahO-2" source="E3" target="R3" edge="1">
          <mxGeometry relative="1" as="geometry" />
        </mxCell>
        <mxCell id="Card_E3_R3" value="(1,1)" style="text;html=1;strokeColor=none;fillColor=none;align=center;verticalAlign=middle;whiteSpace=wrap;rounded=0;" parent="hwFDASRLzHkRxMsRQahO-2" vertex="1">
          <mxGeometry x="830" y="370" width="40" height="20" as="geometry" />
        </mxCell>
        <mxCell id="C_R3_E4" value="" style="endArrow=none;html=1;rounded=0;" parent="hwFDASRLzHkRxMsRQahO-2" source="R3" target="E4" edge="1">
          <mxGeometry relative="1" as="geometry" />
        </mxCell>
        <mxCell id="Card_R3_E4" value="(0,n)" style="text;html=1;strokeColor=none;fillColor=none;align=center;verticalAlign=middle;whiteSpace=wrap;rounded=0;" parent="hwFDASRLzHkRxMsRQahO-2" vertex="1">
          <mxGeometry x="830" y="490" width="40" height="20" as="geometry" />
        </mxCell>
      </root>
    </mxGraphModel>
  </diagram>
</mxfile>
